<svg xmlns="http://www.w3.org/2000/svg" viewBox="0 0 335.73 116.7"><title>Sin título-1</title><g id="Capa_2" data-name="Capa 2"><text transform="matrix(0.61, -0.08, -0.3, 0.95, 17.03, 97.55)" style="font-size:62.729827880859375px;fill:none;stroke:#1d1d1b;stroke-linecap:round;stroke-linejoin:round;stroke-width:12px;font-family:FranieTest-Black, Franie Test;font-weight:800">VIDEO<tspan x="243.45" y="0" style="letter-spacing:-0.04000132560339651em">G</tspan><tspan x="296.65" y="0">AME</tspan></text><text transform="matrix(0.61, -0.08, -0.3, 0.95, 17.03, 97.55)" style="font-size:62.729827880859375px;fill:#fff;font-family:FranieTest-Black, Franie Test;font-weight:800">VIDEO<tspan x="243.45" y="0" style="letter-spacing:-0.04000132560339651em">G</tspan><tspan x="296.65" y="0">AME</tspan></text><text transform="matrix(0.61, -0.08, -0.3, 0.95, 17.03, 97.55)" style="font-size:62.729827880859375px;fill:#ea1f1f;font-family:FranieTest-Black, Franie Test;font-weight:800">VIDEO<tspan x="243.45" y="0" style="letter-spacing:-0.04000132560339651em">G</tspan><tspan x="296.65" y="0">AME</tspan></text><text transform="matrix(0.61, -0.08, -0.3, 0.95, 181.6, 102.46)" style="font-size:29.990150451660156px;fill:none;stroke:#1d1d1b;stroke-linecap:round;stroke-linejoin:round;stroke-width:12px;font-family:FranieTest-Black, Franie Test;font-weight:800"><tspan style="letter-spacing:-0.03995864544837294em">C</tspan><tspan x="25.94" y="0" style="letter-spacing:-0.08002300159899023em">AT</tspan><tspan x="69.7" y="0">A</tspan><tspan x="95.94" y="0" style="letter-spacing:-0.01997932272418647em">L</tspan><tspan x="117.74" y="0">OGE</tspan></text><text transform="matrix(0.61, -0.08, -0.3, 0.95, 181.6, 102.46)" style="font-size:29.990150451660156px;fill:#fff;font-family:FranieTest-Black, Franie Test;font-weight:800"><tspan style="letter-spacing:-0.03995864544837294em">C</tspan><tspan x="25.94" y="0" style="letter-spacing:-0.08002300159899023em">AT</tspan><tspan x="69.7" y="0">A</tspan><tspan x="95.94" y="0" style="letter-spacing:-0.01997932272418647em">L</tspan><tspan x="117.74" y="0">OGE</tspan></text><text transform="matrix(0.61, -0.08, -0.3, 0.95, 181.6, 102.46)" style="font-size:29.990150451660156px;fill:#eab549;font-family:FranieTest-Black, Franie Test;font-weight:800"><tspan style="letter-spacing:-0.03995864544837294em">C</tspan><tspan x="25.94" y="0" style="letter-spacing:-0.08002300159899023em">AT</tspan><tspan x="69.7" y="0">A</tspan><tspan x="95.94" y="0" style="letter-spacing:-0.01997932272418647em">L</tspan><tspan x="117.74" y="0">OGE</tspan></text></g></svg>